<?xml version="1.0" encoding="utf-8"?>
<!-- Generator: Adobe Illustrator 19.1.0, SVG Export Plug-In . SVG Version: 6.00 Build 0)  -->
<!DOCTYPE svg PUBLIC "-//W3C//DTD SVG 1.1//EN" "http://www.w3.org/Graphics/SVG/1.1/DTD/svg11.dtd">
<svg version="1.1" id="Ebene_1" xmlns="http://www.w3.org/2000/svg" xmlns:xlink="http://www.w3.org/1999/xlink" x="0px" y="0px"
	 viewBox="-273 365 64 64" style="enable-background:new -273 365 64 64;" xml:space="preserve">
<style type="text/css">
	.st0{fill:#D8D8D8;}
</style>
<path class="st0" d="M-217,381h-12v-8c0-2.2-1.8-4-4-4h-16c-2.2,0-4,1.8-4,4v8h-12c-4.4,0-8,3.6-8,8v32c0,4.4,3.6,8,8,8h48
	c4.4,0,8-3.6,8-8v-32C-209,384.6-212.6,381-217,381z M-249,373h16v8h-16V373z M-225,409h-12v12h-8v-12h-12v-8h12v-12h8v12h12V409z"
	/>
</svg>
