<?xml version="1.0" encoding="UTF-8" standalone="no"?>
<!-- Generated by IcoMoon.io -->

<svg
   xmlns:dc="http://purl.org/dc/elements/1.1/"
   xmlns:cc="http://creativecommons.org/ns#"
   xmlns:rdf="http://www.w3.org/1999/02/22-rdf-syntax-ns#"
   xmlns:svg="http://www.w3.org/2000/svg"
   xmlns="http://www.w3.org/2000/svg"
   xmlns:sodipodi="http://sodipodi.sourceforge.net/DTD/sodipodi-0.dtd"
   xmlns:inkscape="http://www.inkscape.org/namespaces/inkscape"
   version="1.1"
   width="64"
   height="64"
   viewBox="0 0 64 64"
   id="svg4"
   sodipodi:docname="plusdir.svg"
   inkscape:version="0.92.5 (2060ec1f9f, 2020-04-08)">
  <metadata
     id="metadata10">
    <rdf:RDF>
      <cc:Work
         rdf:about="">
        <dc:format>image/svg+xml</dc:format>
        <dc:type
           rdf:resource="http://purl.org/dc/dcmitype/StillImage" />
      </cc:Work>
    </rdf:RDF>
  </metadata>
  <defs
     id="defs8" />
  <sodipodi:namedview
     pagecolor="#ffffff"
     bordercolor="#666666"
     borderopacity="1"
     objecttolerance="10"
     gridtolerance="10"
     guidetolerance="10"
     inkscape:pageopacity="0"
     inkscape:pageshadow="2"
     inkscape:window-width="1562"
     inkscape:window-height="1006"
     id="namedview6"
     showgrid="false"
     inkscape:zoom="11.087513"
     inkscape:cx="16.802419"
     inkscape:cy="33.438171"
     inkscape:window-x="710"
     inkscape:window-y="166"
     inkscape:window-maximized="0"
     inkscape:current-layer="svg4" />
  <path
     style="fill:#000000;stroke-width:0.99999994"
     d="M 19.806641,0 C 18.964854,0 18.283203,0.69945991 18.283203,1.5625 V 18.744141 H 1.5234375 C 0.68165065,18.744141 0,19.443601 0,20.306641 v 9.373047 c 0,0.86304 0.68165065,1.5625 1.5234375,1.5625 H 18.283203 v 17.18164 c 0,0.86304 0.681651,1.5625 1.523438,1.5625 h 4.365234 V 38.822881 l 6.300781,-0.0625 v -7.518193 h 16.759766 c 0.841787,0 1.523437,-0.699461 1.523437,-1.5625 v -9.373047 c 0,-0.86304 -0.68165,-1.5625 -1.523437,-1.5625 H 30.472656 V 1.5625 C 30.472656,0.69945991 29.791006,0 28.949219,0 Z"
     id="path2"
     inkscape:connector-curvature="0"
     sodipodi:nodetypes="sscsssscssccccsssscsss" />
  <path
     style="fill:#000000;fill-opacity:1;stroke:#000000;stroke-width:0.09999999;stroke-linecap:butt;stroke-linejoin:miter;stroke-miterlimit:4;stroke-dasharray:none;stroke-opacity:1"
     d="M 36.926584,41.542326 26.607422,41.430302 V 63.910156 H 58.894531 V 62.808594 H 27.417969 l 0.271484,-0.251953 3.867188,-14.433594 h 27.33789 V 44.546875 H 37.016775 Z"
     id="path817"
     inkscape:connector-curvature="0"
     sodipodi:nodetypes="cccccccccccc" />
  <path
     style="fill:none;fill-opacity:1;stroke:#000000;stroke-width:2;stroke-linecap:round;stroke-linejoin:bevel;stroke-miterlimit:4;stroke-dasharray:none;stroke-opacity:1"
     d="m 27.688807,62.556935 c 3.855805,-14.39006 3.867455,-14.433537 3.867455,-14.433537 H 63.043896 L 59.10926,62.807657 H 27.418232 Z"
     id="path847"
     inkscape:connector-curvature="0" />
</svg>
