<svg id="Ebene_1" data-name="Ebene 1" xmlns="http://www.w3.org/2000/svg" width="512" height="512" viewBox="0 0 512 512"><path d="M237,181a236.85,236.85,0,0,1,26.17-63.16,131.92,131.92,0,0,1,44.4-45.1Q335,55.88,368.62,55.87q64,0,102.83,35l21.88-43.15Q445,6.57,364.05,6.56a179.71,179.71,0,0,0-79.33,17.85A190.23,190.23,0,0,0,221.06,74.2q-26.77,32-41.95,78.67A289.7,289.7,0,0,0,171.53,181Z" fill="#000000"/><path d="M339.24,245.65v49.64H447.29V427.65q-23.18,13.62-42.76,20.93t-49.13,7.29a100.44,100.44,0,0,1-55-16.22q-4.87-3.11-9.39-6.66v62.77a174.65,174.65,0,0,0,60.81,10.4q45.21,0,79.49-13.3t72.47-37.63V245.65Z" fill="#000000"/><polygon points="282.11 239 233.72 494.39 156.55 401.58 -47.95 571.61 -104.19 503.97 100.31 333.93 22.19 239.98 282.11 239" fill="#000000"/></svg>