<svg id="Ebene_1" data-name="Ebene 1" xmlns="http://www.w3.org/2000/svg" width="512" height="512" viewBox="0 0 512 512"><path d="M489.58,292.34a160.24,160.24,0,0,0-54.05-45.62,643.46,643.46,0,0,0-64.45-29.42q-32.24-12.56-48.1-21.48-42-24.47-42-62.64t23-59.5q23-21.32,62-21.32,60.49,0,103.46,33.39l23.14-47.6Q445.95,1.46,362.65,1.46q-66.12,0-108.09,34.21t-42,96q0,44.63,23.47,75c.32.42.67.84,1,1.27H289v39.93q21.57,11.28,56.46,25.24l19.83,7.93Q397,294,419.34,314t22.31,58.67q0,38.67-21.49,63T359,459.92q-37.69,0-70-11.53v56a329.07,329.07,0,0,0,68.69,6.79q71.4,0,112.55-37.19t41.15-108.25Q511.39,321.1,489.58,292.34Z" fill="#000000"/><polygon points="263.11 250 214.72 505.39 137.55 412.58 -66.95 582.61 -123.19 514.97 81.31 344.93 3.19 250.98 263.11 250" fill="#000000"/></svg>