<?xml version="1.0" encoding="UTF-8" standalone="no"?>
<!-- Generated by IcoMoon.io -->

<svg
   xmlns:dc="http://purl.org/dc/elements/1.1/"
   xmlns:cc="http://creativecommons.org/ns#"
   xmlns:rdf="http://www.w3.org/1999/02/22-rdf-syntax-ns#"
   xmlns:svg="http://www.w3.org/2000/svg"
   xmlns="http://www.w3.org/2000/svg"
   xmlns:sodipodi="http://sodipodi.sourceforge.net/DTD/sodipodi-0.dtd"
   xmlns:inkscape="http://www.inkscape.org/namespaces/inkscape"
   version="1.1"
   width="64"
   height="64"
   viewBox="0 0 64 64"
   id="svg4"
   sodipodi:docname="tree-expanded.svg"
   inkscape:version="0.92.5 (2060ec1f9f, 2020-04-08)">
  <metadata
     id="metadata10">
    <rdf:RDF>
      <cc:Work
         rdf:about="">
        <dc:format>image/svg+xml</dc:format>
        <dc:type
           rdf:resource="http://purl.org/dc/dcmitype/StillImage" />
      </cc:Work>
    </rdf:RDF>
  </metadata>
  <defs
     id="defs8" />
  <sodipodi:namedview
     pagecolor="#ffffff"
     bordercolor="#666666"
     borderopacity="1"
     objecttolerance="10"
     gridtolerance="10"
     guidetolerance="10"
     inkscape:pageopacity="0"
     inkscape:pageshadow="2"
     inkscape:window-width="1482"
     inkscape:window-height="1110"
     id="namedview6"
     showgrid="true"
     inkscape:zoom="6.691025"
     inkscape:cx="33.206458"
     inkscape:cy="32.745658"
     inkscape:window-x="235"
     inkscape:window-y="88"
     inkscape:window-maximized="0"
     inkscape:current-layer="svg4">
    <inkscape:grid
       type="xygrid"
       id="grid817" />
  </sodipodi:namedview>
  <path
     style="fill:#000000;fill-opacity:1;stroke:#000000;stroke-width:2.99999976;stroke-linecap:butt;stroke-linejoin:miter;stroke-miterlimit:4;stroke-dasharray:none;stroke-opacity:1"
     d="M 21.26119,30.86611 H 6.9965612 l 7.1323148,10.479227 z"
     id="path819"
     inkscape:connector-curvature="0"
     sodipodi:nodetypes="cccc" />
  <path
     d="m 56.191833,63.767331 c 2.653055,0.02288 3.575497,-1.608974 3.575497,-3.575498 V 48.273507 c 0,-1.966524 -1.608973,-3.575497 -3.575497,-3.575497 H 44.273507 c -1.966524,0 -3.575497,1.608973 -3.575497,3.575497 v 11.918326 c 0,1.966524 1.860071,3.560277 3.575497,3.575498 5.435569,-0.0079 5.435569,0.03424 11.918326,0 z M 45.46534,59 V 49.46534 H 55 V 59 Z"
     id="path2-2-5"
     inkscape:connector-curvature="0"
     style="fill:#000000;stroke-width:1"
     sodipodi:nodetypes="cssssssccccccc" />
  <path
     style="fill:none;stroke:#000000;stroke-width:4;stroke-linecap:butt;stroke-linejoin:miter;stroke-miterlimit:4;stroke-dasharray:none;stroke-opacity:1"
     d="M 32.5536,22.101417 C 32.5536,54 32.5536,54 32.5536,54 h 8.844298"
     id="path856"
     inkscape:connector-curvature="0" />
  <path
     d="m 39.983714,24.982435 c 3.421873,0.02952 4.611626,-2.075232 4.611626,-4.611626 V 4.9987208 c 0,-2.5363944 -2.075232,-4.61162615 -4.611626,-4.61162615 H 24.611626 C 22.075232,0.38709465 20,2.4623264 20,4.9987208 V 20.370809 c 0,2.536394 2.399094,4.591995 4.611626,4.611626 7.01072,-0.01013 7.01072,0.04417 15.372088,0 z M 26.148835,18.8336 V 6.5359296 H 38.446506 V 18.8336 Z"
     id="path2"
     inkscape:connector-curvature="0"
     style="fill:#000000;stroke-width:1"
     sodipodi:nodetypes="cssssssccccccc" />
  <path
     d="m 56.191833,43.767331 c 2.653055,0.02288 3.575497,-1.608974 3.575497,-3.575498 V 28.273507 c 0,-1.966524 -1.608973,-3.575497 -3.575497,-3.575497 H 44.273507 c -1.966524,0 -3.575497,1.608973 -3.575497,3.575497 v 11.918326 c 0,1.966524 1.860071,3.560277 3.575497,3.575498 5.435569,-0.0079 5.435569,0.03424 11.918326,0 z M 45.46534,39 V 29.46534 H 55 V 39 Z"
     id="path2-2-5-8"
     inkscape:connector-curvature="0"
     style="fill:#000000;stroke-width:1"
     sodipodi:nodetypes="cssssssccccccc" />
  <path
     style="fill:none;stroke:#000000;stroke-width:4;stroke-linecap:butt;stroke-linejoin:miter;stroke-opacity:1;stroke-miterlimit:4;stroke-dasharray:none"
     d="m 32.431503,34 c 9.86396,0 9.86396,0 9.86396,0"
     id="path1408"
     inkscape:connector-curvature="0" />
</svg>
