<?xml version="1.0" encoding="UTF-8" standalone="no"?>
<!-- Generated by IcoMoon.io -->

<svg
   xmlns:dc="http://purl.org/dc/elements/1.1/"
   xmlns:cc="http://creativecommons.org/ns#"
   xmlns:rdf="http://www.w3.org/1999/02/22-rdf-syntax-ns#"
   xmlns:svg="http://www.w3.org/2000/svg"
   xmlns="http://www.w3.org/2000/svg"
   xmlns:sodipodi="http://sodipodi.sourceforge.net/DTD/sodipodi-0.dtd"
   xmlns:inkscape="http://www.inkscape.org/namespaces/inkscape"
   version="1.1"
   width="64"
   height="64"
   viewBox="0 0 64 64"
   id="svg4"
   sodipodi:docname="save-as.svg"
   inkscape:version="0.92.3 (2405546, 2018-03-11)">
  <metadata
     id="metadata10">
    <rdf:RDF>
      <cc:Work
         rdf:about="">
        <dc:format>image/svg+xml</dc:format>
        <dc:type
           rdf:resource="http://purl.org/dc/dcmitype/StillImage" />
        <dc:title />
      </cc:Work>
    </rdf:RDF>
  </metadata>
  <path
     d="M 0 8 L 0 60 L 64 60 L 64 16 L 36 16 L 28 8 L 0 8 z M 51.462891 18.041016 L 53.689453 18.041016 L 53.689453 25.404297 L 60.251953 21.439453 L 61.384766 23.373047 L 54.373047 27.162109 L 61.384766 30.970703 L 60.251953 32.884766 L 53.689453 28.919922 L 53.689453 36.283203 L 51.462891 36.283203 L 51.462891 28.919922 L 44.900391 32.884766 L 43.767578 30.970703 L 50.779297 27.162109 L 43.767578 23.373047 L 44.900391 21.439453 L 51.462891 25.404297 L 51.462891 18.041016 z M 28 24 L 36 24 L 36 40 L 46 40 L 32 54 L 18 40 L 28 40 L 28 24 z "
     id="path2" />
</svg>
