<?xml version="1.0" encoding="UTF-8" standalone="no"?>
<!DOCTYPE svg PUBLIC "-//W3C//DTD SVG 1.1//EN" "http://www.w3.org/Graphics/SVG/1.1/DTD/svg11.dtd">
<svg width="100%" height="100%" viewBox="0 0 512 512" version="1.1" xmlns="http://www.w3.org/2000/svg" xmlns:xlink="http://www.w3.org/1999/xlink" xml:space="preserve" xmlns:serif="http://www.serif.com/" style="fill-rule:evenodd;clip-rule:evenodd;stroke-linejoin:round;stroke-miterlimit:2;">
    <path d="M351.56,282.252C338.726,361.695 269.039,422.044 186.988,422.169L101.567,422.169C88.227,422.169 77.277,411.212 77.277,397.93C77.277,397.93 77.277,374.859 77.277,374.859C77.277,374.859 30.29,374.859 30.29,374.859C16.95,374.859 6,363.902 6,350.62C6,337.338 16.95,326.382 30.29,326.382C30.29,326.382 77.277,326.382 77.277,326.382C77.277,326.382 77.277,185.618 77.277,185.618L30.29,185.618C16.95,185.618 6,174.662 6,161.38C6,148.098 16.95,137.141 30.29,137.141C30.29,137.141 77.277,137.141 77.277,137.141C77.277,137.141 77.277,114.07 77.277,114.07C77.277,100.788 88.227,89.831 101.567,89.831L186.988,89.831C269.039,89.956 338.726,150.305 351.56,229.748C361.303,209.775 381.815,196 405.519,196C429.931,196 450.957,210.611 460.324,231.56L481.775,231.762C495.085,231.797 506,242.74 506,256C506,269.282 495.05,280.238 481.71,280.238C481.671,280.238 481.632,280.238 481.593,280.238L460.501,280.039C451.225,301.202 430.086,316 405.519,316C381.815,316 361.303,302.225 351.56,282.252ZM186.969,373.692L125.857,373.692C125.857,373.692 125.857,138.308 125.857,138.308C125.857,138.308 186.969,138.308 186.969,138.308C251.831,138.308 305.232,191.421 305.232,256C305.232,320.579 251.831,373.692 186.969,373.692ZM405.519,235.38C416.899,235.38 426.139,244.619 426.139,256C426.139,267.381 416.899,276.62 405.519,276.62C394.138,276.62 384.898,267.381 384.898,256C384.898,244.619 394.138,235.38 405.519,235.38Z" style="fill:#ffffff;"/>
</svg>
