<?xml version="1.0" encoding="UTF-8" standalone="no"?>
<!DOCTYPE svg PUBLIC "-//W3C//DTD SVG 1.1//EN" "http://www.w3.org/Graphics/SVG/1.1/DTD/svg11.dtd">
<svg width="100%" height="100%" viewBox="0 0 512 512" version="1.1" xmlns="http://www.w3.org/2000/svg" xmlns:xlink="http://www.w3.org/1999/xlink" xml:space="preserve" xmlns:serif="http://www.serif.com/" style="fill-rule:evenodd;clip-rule:evenodd;stroke-linejoin:round;stroke-miterlimit:2;">
    <g transform="matrix(1.08147,0,0,1.08147,-15.0887,-20.8565)">
        <path d="M458.667,232.833L389.029,232.837C357.431,214.164 157.406,101.321 150.596,97.48C147.018,95.323 142.882,94.172 138.667,94.172C125.962,94.172 115.506,104.623 115.5,117.327L115.5,232.833C115.5,232.833 42.667,232.833 42.667,232.833C29.958,232.833 19.5,243.291 19.5,256C19.5,268.709 29.958,279.167 42.667,279.167C42.667,279.167 115.5,279.167 115.5,279.167L115.5,394.673C115.506,407.377 125.962,417.828 138.667,417.828C142.882,417.828 147.018,416.677 150.626,414.503C157.33,410.712 358.49,296.947 388.969,279.023C388.968,279.023 458.641,279.167 458.641,279.167C458.65,279.167 458.658,279.167 458.667,279.167C471.376,279.167 481.833,268.709 481.833,256C481.833,243.291 471.376,232.833 458.667,232.833ZM161.833,354.101L161.833,157.899C161.833,157.899 336.357,256 336.357,256L161.833,354.101Z" style="fill:white;fill-rule:nonzero;"/>
    </g>
</svg>
