<?xml version="1.0" encoding="UTF-8" standalone="no"?>
<!DOCTYPE svg PUBLIC "-//W3C//DTD SVG 1.1//EN" "http://www.w3.org/Graphics/SVG/1.1/DTD/svg11.dtd">
<svg width="100%" height="100%" viewBox="0 0 512 512" version="1.1" xmlns="http://www.w3.org/2000/svg" xmlns:xlink="http://www.w3.org/1999/xlink" xml:space="preserve" xmlns:serif="http://www.serif.com/" style="fill-rule:evenodd;clip-rule:evenodd;stroke-linejoin:round;stroke-miterlimit:2;">
    <path d="M76.375,135.889L31.646,135.889C17.577,135.889 6,147.466 6,161.535C6,175.604 17.577,187.181 31.646,187.181L76.375,187.181L76.375,324.819L31.646,324.819C17.577,324.819 6,336.396 6,350.465C6,364.534 17.577,376.111 31.646,376.111L76.375,376.111L76.375,398.292C76.375,412.651 88.015,424.292 102.375,424.292L395.692,424.292C410.052,424.292 421.692,412.651 421.692,398.292L421.692,281.646L480.354,281.646C494.423,281.646 506,270.069 506,256C506,241.931 494.423,230.354 480.354,230.354L421.692,230.354L421.692,113.708C421.692,99.349 410.052,87.708 395.692,87.708L102.375,87.708C88.015,87.708 76.375,99.349 76.375,113.708L76.375,135.889ZM369.692,139.708L369.692,372.292C369.693,372.292 195.553,372.292 128.375,372.292C128.375,372.292 128.375,205.297 128.375,139.708L369.692,139.708Z" style="fill:#ffffff;"/>
</svg>
