<?xml version="1.0" encoding="UTF-8" standalone="no"?>
<!DOCTYPE svg PUBLIC "-//W3C//DTD SVG 1.1//EN" "http://www.w3.org/Graphics/SVG/1.1/DTD/svg11.dtd">
<svg width="100%" height="100%" viewBox="0 0 512 512" version="1.1" xmlns="http://www.w3.org/2000/svg" xmlns:xlink="http://www.w3.org/1999/xlink" xml:space="preserve" xmlns:serif="http://www.serif.com/" style="fill-rule:evenodd;clip-rule:evenodd;stroke-linejoin:round;stroke-miterlimit:2;">
    <g transform="matrix(1.10701,0,0,1.10701,-27.3948,-27.4302)">
        <path d="M458.667,232.833L405.24,232.833C393.913,160.198 330.594,104.947 256.019,104.833C256.01,104.833 256.001,104.833 255.992,104.833L161.24,104.897C161.235,104.897 161.23,104.897 161.225,104.897C148.516,104.897 138.058,115.355 138.058,128.064C138.058,133.196 139.763,138.182 142.899,142.236C166.75,175.45 179.953,215.158 180.739,256.056C179.955,296.962 166.753,336.671 142.894,369.897C139.765,373.941 138.058,378.929 138.058,384.064C138.058,396.773 148.516,407.231 161.225,407.231C161.237,407.231 161.249,407.23 161.261,407.23C161.25,407.23 255.999,407.167 255.999,407.167C330.676,407.298 394.156,351.923 405.296,279.167C405.296,279.167 458.667,279.167 458.667,279.167C471.376,279.167 481.833,268.709 481.833,256C481.833,243.291 471.376,232.833 458.667,232.833ZM74.882,147.5L53.333,147.5C40.624,147.5 30.167,157.958 30.167,170.667C30.167,183.376 40.624,193.833 53.333,193.833C53.333,193.833 103.569,193.833 103.569,193.833C112.616,213.507 120.727,234.583 120.664,255.963C120.664,255.987 120.664,256.011 120.664,256.035C120.723,277.415 112.612,298.491 103.568,318.167C103.568,318.167 53.333,318.167 53.333,318.167C40.624,318.167 30.167,328.624 30.167,341.333C30.167,354.042 40.624,364.5 53.333,364.5L74.801,364.5C73.651,367.277 73.045,370.277 73.045,373.339C73.045,386.049 83.503,396.507 96.213,396.507C102.364,396.507 108.269,394.058 112.614,389.704C112.798,389.519 112.977,389.328 113.15,389.132C145.44,352.434 167.843,304.846 166.999,255.977C167.836,207.139 145.435,159.56 113.15,122.868C112.93,122.619 112.701,122.378 112.462,122.147C108.142,117.962 102.358,115.62 96.344,115.62C83.635,115.62 73.177,126.078 73.177,138.787C73.177,141.801 73.765,144.757 74.882,147.5ZM330.172,330.188C330.169,330.191 330.166,330.194 330.163,330.197C310.546,349.889 283.838,360.928 256.043,360.833C256.025,360.833 256.007,360.833 255.989,360.833L202.302,360.879C218.177,328.337 226.691,292.592 227.117,256.21C227.118,256.113 227.118,256.015 227.117,255.918C226.691,219.523 218.17,183.765 202.284,151.213C202.284,151.213 255.998,151.167 255.998,151.167C313.52,151.208 360.831,198.552 360.831,256.075C360.831,283.854 349.797,310.527 330.172,330.188Z" style="fill:white;fill-rule:nonzero;"/>
    </g>
</svg>
