<?xml version="1.0" encoding="UTF-8" standalone="no"?>
<!DOCTYPE svg PUBLIC "-//W3C//DTD SVG 1.1//EN" "http://www.w3.org/Graphics/SVG/1.1/DTD/svg11.dtd">
<svg width="100%" height="100%" viewBox="0 0 512 512" version="1.1" xmlns="http://www.w3.org/2000/svg" xmlns:xlink="http://www.w3.org/1999/xlink" xml:space="preserve" xmlns:serif="http://www.serif.com/" style="fill-rule:evenodd;clip-rule:evenodd;stroke-linejoin:round;stroke-miterlimit:2;">
    <path d="M355.329,284.566C341.718,363.617 272.175,423.381 190.549,423.237C190.549,423.237 139.426,423.352 139.439,423.352C139.425,423.352 139.412,423.352 139.399,423.352C125.33,423.352 113.753,411.775 113.753,397.706C113.753,392.022 115.643,386.5 119.106,382.024C145.519,345.242 160.133,301.284 161.001,256C160.131,210.726 145.515,166.768 119.112,130.001C115.641,125.512 113.753,119.993 113.753,114.311C113.753,100.243 122.765,88.689 136.834,88.689C136.839,88.689 136.845,88.689 136.85,88.689L187.976,88.574C187.986,88.574 187.996,88.574 188.006,88.574C269.595,88.699 341.579,148.417 355.299,227.444C365.455,208.71 385.294,195.977 408.083,195.977C432.009,195.977 452.682,210.011 462.313,230.288L480.354,230.319C494.423,230.319 506,241.896 506,255.965C506,270.034 494.423,281.61 480.354,281.61L462.354,281.58C452.74,301.904 432.042,315.977 408.083,315.977C385.317,315.977 365.495,303.269 355.329,284.566ZM43.816,135.828L31.646,135.854C17.577,135.854 6,147.431 6,161.5C6,175.569 17.577,187.145 31.646,187.145C31.646,187.145 75.573,187.119 75.573,187.119C85.589,208.898 94.568,232.229 94.497,255.897C94.497,255.924 94.497,255.95 94.497,255.977C94.563,279.645 85.584,302.977 75.572,324.757C75.572,324.757 31.646,324.784 31.646,324.784C17.577,324.784 6,336.361 6,350.43C6,364.498 17.577,376.075 31.646,376.075L43.726,376.049C42.454,379.123 41.782,382.445 41.782,385.833C41.782,399.904 53.36,411.482 67.43,411.482C74.239,411.482 80.776,408.77 85.585,403.95C85.79,403.745 85.988,403.534 86.179,403.317C121.925,362.692 146.725,310.011 145.79,255.913C146.717,201.848 121.919,149.178 86.179,108.56C85.936,108.284 85.682,108.017 85.418,107.762C80.636,103.129 74.233,100.536 67.575,100.536C53.506,100.536 41.929,112.113 41.929,126.182C41.929,129.519 42.58,132.791 43.816,135.828ZM272.659,338.021C272.655,338.024 272.652,338.028 272.649,338.031C250.933,359.83 221.367,372.051 190.597,371.946C190.577,371.946 190.558,371.946 190.538,371.946L184.871,372.041C202.445,336.016 211.871,296.446 212.342,256.171C212.343,256.063 212.343,255.955 212.342,255.847C211.871,215.557 202.438,175.973 184.852,139.937C184.852,139.937 190.548,139.843 190.548,139.843C254.225,139.888 306.599,192.299 306.599,255.977C306.599,286.729 294.384,316.256 272.659,338.021ZM408.083,235.356C419.464,235.356 428.704,244.596 428.704,255.977C428.704,267.358 419.464,276.597 408.083,276.597C396.703,276.597 387.463,267.358 387.463,255.977C387.463,244.596 396.703,235.356 408.083,235.356Z" style="fill:white;"/>
</svg>
