<?xml version="1.0" encoding="UTF-8" standalone="no"?>
<!DOCTYPE svg PUBLIC "-//W3C//DTD SVG 1.1//EN" "http://www.w3.org/Graphics/SVG/1.1/DTD/svg11.dtd">
<svg width="100%" height="100%" viewBox="0 0 512 512" version="1.1" xmlns="http://www.w3.org/2000/svg" xmlns:xlink="http://www.w3.org/1999/xlink" xml:space="preserve" xmlns:serif="http://www.serif.com/" style="fill-rule:evenodd;clip-rule:evenodd;stroke-linejoin:round;stroke-miterlimit:2;">
    <g transform="matrix(1.10701,0,0,1.10701,-27.3948,-27.395)">
        <path d="M458.667,232.833L405.24,232.833C393.913,160.198 330.594,104.947 256.019,104.833C256.013,104.833 256.006,104.833 256,104.833L117.333,104.833C117.336,104.833 117.332,104.833 117.327,104.833C104.618,104.833 94.161,115.291 94.161,128C94.161,133.163 95.886,138.178 99.058,142.245C100.327,143.966 101.57,145.722 102.78,147.5C102.78,147.5 53.333,147.5 53.333,147.5C40.624,147.5 30.167,157.958 30.167,170.667C30.167,183.376 40.624,193.833 53.333,193.833C53.333,193.833 125.794,193.833 125.794,193.833C132.908,213.773 136.645,234.782 136.833,255.99C136.646,277.211 132.909,298.223 125.795,318.167C125.794,318.167 53.333,318.167 53.333,318.167C40.624,318.167 30.167,328.624 30.167,341.333C30.167,354.042 40.624,364.5 53.333,364.5L102.78,364.5C101.573,366.275 100.331,368.028 99.056,369.757C95.891,373.807 94.161,378.83 94.161,384C94.161,396.709 104.618,407.167 117.327,407.167L255.996,407.167C330.674,407.299 394.156,351.924 405.296,279.167C405.296,279.167 458.667,279.167 458.667,279.167C471.376,279.167 481.833,268.709 481.833,256C481.833,243.291 471.376,232.833 458.667,232.833ZM330.172,330.188C330.169,330.191 330.166,330.194 330.163,330.197C310.546,349.889 283.838,360.928 256.043,360.833C256.028,360.833 256.014,360.833 256,360.833L158.34,360.833C174.218,328.285 182.736,292.535 183.166,256.148C183.167,256.049 183.167,255.951 183.166,255.852C182.736,219.465 174.218,183.715 158.34,151.167C158.34,151.167 255.994,151.167 255.994,151.167C313.518,151.206 360.831,198.551 360.831,256.075C360.831,283.854 349.797,310.527 330.172,330.188Z" style="fill:white;"/>
    </g>
</svg>
