<?xml version="1.0" encoding="UTF-8" standalone="no"?>
<!DOCTYPE svg PUBLIC "-//W3C//DTD SVG 1.1//EN" "http://www.w3.org/Graphics/SVG/1.1/DTD/svg11.dtd">
<svg width="100%" height="100%" viewBox="0 0 512 512" version="1.1" xmlns="http://www.w3.org/2000/svg" xmlns:xlink="http://www.w3.org/1999/xlink" xml:space="preserve" xmlns:serif="http://www.serif.com/" style="fill-rule:evenodd;clip-rule:evenodd;stroke-linejoin:round;stroke-miterlimit:2;">
    <path d="M340.276,293.447L124.098,427.266C120.139,429.715 115.575,431.012 110.92,431.012C97.18,431.012 85.872,419.71 85.866,405.971L85.866,281.054C85.866,281.054 31.054,281.054 31.054,281.054C17.31,281.054 6,269.744 6,256C6,242.256 17.31,230.946 31.054,230.946C31.054,230.946 85.866,230.946 85.866,230.946L85.866,106.03C85.872,92.29 97.18,80.988 110.92,80.988C115.575,80.988 120.139,82.285 124.098,84.734L340.275,218.553C351.275,204.809 368.189,196 387.143,196C411.317,196 432.171,210.327 441.67,230.946L480.946,230.946C494.69,230.946 506,242.256 506,256C506,269.744 494.69,281.054 480.946,281.054L441.67,281.054C432.171,301.673 411.317,316 387.143,316C368.189,316 351.275,307.191 340.276,293.447ZM135.974,360.938L135.974,151.062C135.974,151.062 305.56,256 305.56,256C258.075,285.384 135.974,360.938 135.974,360.938L135.974,360.938ZM387.143,235.38C398.524,235.38 407.764,244.619 407.764,256C407.764,267.381 398.524,276.62 387.143,276.62C375.763,276.62 366.523,267.381 366.523,256C366.523,244.619 375.763,235.38 387.143,235.38Z" style="fill:white;"/>
</svg>
