<?xml version="1.0" encoding="UTF-8" standalone="no"?>
<!DOCTYPE svg PUBLIC "-//W3C//DTD SVG 1.1//EN" "http://www.w3.org/Graphics/SVG/1.1/DTD/svg11.dtd">
<svg width="100%" height="100%" viewBox="0 0 512 512" version="1.1" xmlns="http://www.w3.org/2000/svg" xmlns:xlink="http://www.w3.org/1999/xlink" xml:space="preserve" xmlns:serif="http://www.serif.com/" style="fill-rule:evenodd;clip-rule:evenodd;stroke-linejoin:round;stroke-miterlimit:2;">
    <path d="M352.379,283.868C339.067,363.277 269.35,423.404 187.476,423.261L81.797,423.18C67.728,423.18 56.151,411.603 56.151,397.534C56.151,391.81 58.067,386.25 61.57,381.767C62.982,379.853 64.356,377.913 65.693,375.947C65.693,375.947 31.646,376.152 31.646,376.152C17.577,376.152 6,364.575 6,350.506C6,336.437 17.577,324.861 31.646,324.861C31.646,324.861 91.17,324.656 91.17,324.656C99.046,302.578 103.183,279.318 103.39,255.825C103.182,232.347 99.045,209.091 91.17,187.017C91.17,187.017 31.646,187.222 31.646,187.222C17.577,187.222 6,175.645 6,161.576C6,147.508 17.577,135.931 31.646,135.931C31.646,135.931 65.693,135.726 65.693,135.726C64.354,133.757 62.977,131.814 61.573,129.909C58.062,125.406 56.151,119.854 56.151,114.139C56.151,100.07 67.728,88.493 81.787,88.493L187.498,88.574C269.34,88.699 338.936,148.811 352.349,228.189C362.383,209.061 382.437,196 405.519,196C429.421,196 450.078,210.007 459.722,230.256L480.38,230.396C494.437,230.41 506,241.981 506,256.041C506,270.11 494.423,281.687 480.354,281.687C480.323,281.687 480.292,281.687 480.261,281.687L459.814,281.549C450.209,301.904 429.497,316 405.519,316C382.461,316 362.423,302.965 352.379,283.868ZM269.586,338.044C269.582,338.048 269.579,338.051 269.576,338.054C247.86,359.854 218.294,372.074 187.524,371.969L127.208,371.868C144.779,335.842 154.205,296.274 154.681,256C154.682,255.891 154.682,255.782 154.681,255.673C154.205,215.384 144.772,175.801 127.188,139.764C127.188,139.764 187.475,139.866 187.475,139.866C251.152,139.911 303.526,192.322 303.526,256C303.526,286.752 291.311,316.279 269.586,338.044ZM405.519,235.38C416.899,235.38 426.139,244.619 426.139,256C426.139,267.381 416.899,276.62 405.519,276.62C394.138,276.62 384.898,267.381 384.898,256C384.898,244.619 394.138,235.38 405.519,235.38Z" style="fill:white;"/>
</svg>
