<?xml version="1.0" encoding="UTF-8" standalone="no"?>
<!DOCTYPE svg PUBLIC "-//W3C//DTD SVG 1.1//EN" "http://www.w3.org/Graphics/SVG/1.1/DTD/svg11.dtd">
<svg width="100%" height="100%" viewBox="0 0 512 512" version="1.1" xmlns="http://www.w3.org/2000/svg" xmlns:xlink="http://www.w3.org/1999/xlink" xml:space="preserve" xmlns:serif="http://www.serif.com/" style="fill-rule:evenodd;clip-rule:evenodd;stroke-linejoin:round;stroke-miterlimit:2;">
    <g transform="matrix(1.10701,0,0,1.10701,-27.3948,-27.3948)">
        <path d="M458.667,232.833L405.24,232.833C393.913,160.198 330.594,104.947 256.019,104.833C256.013,104.833 256.006,104.833 256,104.833L117.333,104.833C104.624,104.833 94.167,115.291 94.167,128C94.167,128 94.167,147.5 94.167,147.5C94.167,147.5 53.333,147.5 53.333,147.5C40.624,147.5 30.167,157.958 30.167,170.667C30.167,183.376 40.624,193.833 53.333,193.833C53.333,193.833 94.167,193.833 94.167,193.833C94.167,193.833 94.167,318.167 94.167,318.167C94.167,318.167 53.333,318.167 53.333,318.167C40.624,318.167 30.167,328.624 30.167,341.333C30.167,354.042 40.624,364.5 53.333,364.5L94.167,364.5C94.167,364.5 94.167,384 94.167,384C94.167,396.709 104.624,407.167 117.333,407.167C117.333,407.167 256,407.167 256,407.167C256.006,407.167 256.013,407.167 256.019,407.167C330.594,407.053 393.913,351.802 405.24,279.167C405.24,279.167 458.667,279.167 458.667,279.167C471.376,279.167 481.833,268.709 481.833,256C481.833,243.291 471.376,232.833 458.667,232.833ZM256,360.833L140.5,360.833C140.5,360.833 140.5,198.058 140.5,151.167C140.5,151.167 256,151.167 256,151.167C313.51,151.167 360.833,198.49 360.833,256C360.833,313.51 313.51,360.833 256,360.833Z" style="fill:white;fill-rule:nonzero;"/>
    </g>
</svg>
