<?xml version="1.0" encoding="UTF-8" standalone="no"?>
<!DOCTYPE svg PUBLIC "-//W3C//DTD SVG 1.1//EN" "http://www.w3.org/Graphics/SVG/1.1/DTD/svg11.dtd">
<svg width="100%" height="100%" viewBox="0 0 512 512" version="1.1" xmlns="http://www.w3.org/2000/svg" xmlns:xlink="http://www.w3.org/1999/xlink" xml:space="preserve" xmlns:serif="http://www.serif.com/" style="fill-rule:evenodd;clip-rule:evenodd;stroke-linejoin:round;stroke-miterlimit:2;">
    <path d="M407,131C407,116.641 395.359,105 381,105L131,105C116.641,105 105,116.641 105,131L105,381C105,395.359 116.641,407 131,407L381,407C395.359,407 407,395.359 407,381L407,131Z" style="fill:white;"/>
    <g>
        <g transform="matrix(0.500473,0.00633898,-0.00317255,0.99998,23.7231,111.861)">
            <path d="M29.604,169.955L89.545,169.575C118.216,169.393 141.42,157.595 141.329,143.246C141.238,128.896 117.887,117.394 89.215,117.576L29.274,117.956C0.603,118.137 -22.6,129.935 -22.509,144.285C-22.418,158.634 0.933,170.136 29.604,169.955Z" style="fill:white;"/>
        </g>
        <g transform="matrix(0.500473,0.00633898,-0.00317255,0.99998,23.7231,31.8703)">
            <path d="M29.604,169.955L89.545,169.575C118.216,169.393 141.42,157.595 141.329,143.246C141.238,128.896 117.887,117.394 89.215,117.576L29.274,117.956C0.603,118.137 -22.6,129.935 -22.509,144.285C-22.418,158.634 0.933,170.136 29.604,169.955Z" style="fill:white;"/>
        </g>
        <g transform="matrix(0.500473,0.00633898,-0.00317255,0.99998,23.7231,191.861)">
            <path d="M29.604,169.955L89.545,169.575C118.216,169.393 141.42,157.595 141.329,143.246C141.238,128.896 117.887,117.394 89.215,117.576L29.274,117.956C0.603,118.137 -22.6,129.935 -22.509,144.285C-22.418,158.634 0.933,170.136 29.604,169.955Z" style="fill:white;"/>
        </g>
    </g>
    <g transform="matrix(6.12323e-17,1,-1,6.12323e-17,512.005,-1.42109e-14)">
        <g transform="matrix(0.500473,0.00633898,-0.00317255,0.99998,23.7231,111.861)">
            <path d="M29.604,169.955L89.545,169.575C118.216,169.393 141.42,157.595 141.329,143.246C141.238,128.896 117.887,117.394 89.215,117.576L29.274,117.956C0.603,118.137 -22.6,129.935 -22.509,144.285C-22.418,158.634 0.933,170.136 29.604,169.955Z" style="fill:white;"/>
        </g>
        <g transform="matrix(0.500473,0.00633898,-0.00317255,0.99998,23.7231,31.8703)">
            <path d="M29.604,169.955L89.545,169.575C118.216,169.393 141.42,157.595 141.329,143.246C141.238,128.896 117.887,117.394 89.215,117.576L29.274,117.956C0.603,118.137 -22.6,129.935 -22.509,144.285C-22.418,158.634 0.933,170.136 29.604,169.955Z" style="fill:white;"/>
        </g>
        <g transform="matrix(0.500473,0.00633898,-0.00317255,0.99998,23.7231,191.861)">
            <path d="M29.604,169.955L89.545,169.575C118.216,169.393 141.42,157.595 141.329,143.246C141.238,128.896 117.887,117.394 89.215,117.576L29.274,117.956C0.603,118.137 -22.6,129.935 -22.509,144.285C-22.418,158.634 0.933,170.136 29.604,169.955Z" style="fill:white;"/>
        </g>
    </g>
    <g transform="matrix(6.12323e-17,1,-1,6.12323e-17,512.005,406)">
        <g transform="matrix(0.500473,0.00633898,-0.00317255,0.99998,23.7231,111.861)">
            <path d="M29.604,169.955L89.545,169.575C118.216,169.393 141.42,157.595 141.329,143.246C141.238,128.896 117.887,117.394 89.215,117.576L29.274,117.956C0.603,118.137 -22.6,129.935 -22.509,144.285C-22.418,158.634 0.933,170.136 29.604,169.955Z" style="fill:white;"/>
        </g>
        <g transform="matrix(0.500473,0.00633898,-0.00317255,0.99998,23.7231,31.8703)">
            <path d="M29.604,169.955L89.545,169.575C118.216,169.393 141.42,157.595 141.329,143.246C141.238,128.896 117.887,117.394 89.215,117.576L29.274,117.956C0.603,118.137 -22.6,129.935 -22.509,144.285C-22.418,158.634 0.933,170.136 29.604,169.955Z" style="fill:white;"/>
        </g>
        <g transform="matrix(0.500473,0.00633898,-0.00317255,0.99998,23.7231,191.861)">
            <path d="M29.604,169.955L89.545,169.575C118.216,169.393 141.42,157.595 141.329,143.246C141.238,128.896 117.887,117.394 89.215,117.576L29.274,117.956C0.603,118.137 -22.6,129.935 -22.509,144.285C-22.418,158.634 0.933,170.136 29.604,169.955Z" style="fill:white;"/>
        </g>
    </g>
    <g>
        <g transform="matrix(0.500473,0.00633898,-0.00317255,0.99998,429.723,111.852)">
            <path d="M29.604,169.955L89.545,169.575C118.216,169.393 141.42,157.595 141.329,143.246C141.238,128.896 117.887,117.394 89.215,117.576L29.274,117.956C0.603,118.137 -22.6,129.935 -22.509,144.285C-22.418,158.634 0.933,170.136 29.604,169.955Z" style="fill:white;"/>
        </g>
        <g transform="matrix(0.500473,0.00633898,-0.00317255,0.99998,429.723,31.8703)">
            <path d="M29.604,169.955L89.545,169.575C118.216,169.393 141.42,157.595 141.329,143.246C141.238,128.896 117.887,117.394 89.215,117.576L29.274,117.956C0.603,118.137 -22.6,129.935 -22.509,144.285C-22.418,158.634 0.933,170.136 29.604,169.955Z" style="fill:white;"/>
        </g>
        <g transform="matrix(0.500473,0.00633898,-0.00317255,0.99998,429.723,191.852)">
            <path d="M29.604,169.955L89.545,169.575C118.216,169.393 141.42,157.595 141.329,143.246C141.238,128.896 117.887,117.394 89.215,117.576L29.274,117.956C0.603,118.137 -22.6,129.935 -22.509,144.285C-22.418,158.634 0.933,170.136 29.604,169.955Z" style="fill:white;"/>
        </g>
    </g>
</svg>
