<?xml version="1.0" encoding="UTF-8" standalone="no"?>
<!DOCTYPE svg PUBLIC "-//W3C//DTD SVG 1.1//EN" "http://www.w3.org/Graphics/SVG/1.1/DTD/svg11.dtd">
<svg width="100%" height="100%" viewBox="0 0 512 512" version="1.1" xmlns="http://www.w3.org/2000/svg" xmlns:xlink="http://www.w3.org/1999/xlink" xml:space="preserve" xmlns:serif="http://www.serif.com/" style="fill-rule:evenodd;clip-rule:evenodd;stroke-linejoin:round;stroke-miterlimit:2;">
    <g transform="matrix(1,0,0,1,-0.0127221,51.8261)">
        <path d="M230,201.919L230,118.348C230,103.998 241.65,92.348 256,92.348C257.512,92.348 472.102,92.944 472.102,92.944C486.453,92.763 498.14,104.264 498.186,118.613C498.232,132.962 486.618,144.759 472.267,144.94L282,144.743L282,201.919C294.242,207.821 304.18,217.759 310.081,230L472.186,230C486.536,230 498.186,241.65 498.186,256C498.186,270.35 486.536,282 472.186,282L310.081,282C300.387,302.109 279.803,316 256,316C232.197,316 211.613,302.109 201.919,282L39.839,282C25.49,282 13.839,270.35 13.839,256C13.839,241.65 25.49,230 39.839,230L201.919,230C207.821,217.758 217.759,207.82 230,201.919ZM256,235.38C267.381,235.38 276.62,244.619 276.62,256C276.62,267.381 267.381,276.62 256,276.62C244.619,276.62 235.38,267.381 235.38,256C235.38,244.619 244.619,235.38 256,235.38Z" style="fill:white;"/>
    </g>
</svg>
