<?xml version="1.0" encoding="UTF-8" standalone="no"?>
<svg
   xmlns:dc="http://purl.org/dc/elements/1.1/"
   xmlns:cc="http://creativecommons.org/ns#"
   xmlns:rdf="http://www.w3.org/1999/02/22-rdf-syntax-ns#"
   xmlns:svg="http://www.w3.org/2000/svg"
   xmlns="http://www.w3.org/2000/svg"
   xmlns:sodipodi="http://sodipodi.sourceforge.net/DTD/sodipodi-0.dtd"
   xmlns:inkscape="http://www.inkscape.org/namespaces/inkscape"
   width="100%"
   height="100%"
   viewBox="0 0 512 512"
   version="1.1"
   xml:space="preserve"
   style="fill-rule:evenodd;clip-rule:evenodd;stroke-linejoin:round;stroke-miterlimit:2;"
   id="svg4"
   sodipodi:docname="no_gate.svg"
   inkscape:version="0.92.5 (2060ec1f9f, 2020-04-08)"><metadata
   id="metadata10"><rdf:RDF><cc:Work
       rdf:about=""><dc:format>image/svg+xml</dc:format><dc:type
         rdf:resource="http://purl.org/dc/dcmitype/StillImage" /><dc:title></dc:title></cc:Work></rdf:RDF></metadata><defs
   id="defs8" /><sodipodi:namedview
   pagecolor="#ffffff"
   bordercolor="#666666"
   borderopacity="1"
   objecttolerance="10"
   gridtolerance="10"
   guidetolerance="10"
   inkscape:pageopacity="0"
   inkscape:pageshadow="2"
   inkscape:window-width="2090"
   inkscape:window-height="997"
   id="namedview6"
   showgrid="true"
   inkscape:pagecheckerboard="true"
   inkscape:zoom="1.3048598"
   inkscape:cx="515.51627"
   inkscape:cy="238.64407"
   inkscape:window-x="174"
   inkscape:window-y="213"
   inkscape:window-maximized="0"
   inkscape:current-layer="svg4"><inkscape:grid
     type="xygrid"
     id="grid817" /></sodipodi:namedview>
    <path
   style="fill:#ffffff;"
   d="M 135.20508 87.707031 L 187.20508 139.70703 L 322.79492 139.70703 L 374.79492 87.707031 L 135.20508 87.707031 z M 76.375 127.87305 L 76.375 135.88867 L 31.646484 135.88867 C 17.577484 135.88867 6 147.46616 6 161.53516 C 6 175.60416 17.577484 187.18164 31.646484 187.18164 L 76.375 187.18164 L 76.375 324.81836 L 31.646484 324.81836 C 17.577484 324.81836 6 336.39584 6 350.46484 C 6 364.53384 17.577484 376.11133 31.646484 376.11133 L 76.375 376.11133 L 76.375 386.12695 L 128.375 334.12695 L 128.375 179.87305 L 76.375 127.87305 z M 421.69141 139.80664 L 369.69141 191.80664 L 369.69141 322.19336 L 421.69141 374.19336 L 421.69141 281.64648 L 480.35352 281.64648 C 494.42252 281.64648 506 270.069 506 256 C 506 241.931 494.42252 230.35352 480.35352 230.35352 L 421.69141 230.35352 L 421.69141 139.80664 z M 189.20508 372.29297 L 137.20508 424.29297 L 372.79492 424.29297 L 320.79492 372.29297 L 189.20508 372.29297 z "
   id="path2" />
<path
   style="fill:#ffffff;fill-opacity:1;stroke:#000000;stroke-width:8;stroke-linecap:square;stroke-linejoin:miter;stroke-miterlimit:2;stroke-dasharray:none;stroke-opacity:0"
   d="M 30.738281,67.082031 C 94.377604,130.72135 158.01693,194.36068 221.65625,258 158.01693,321.63932 94.377604,385.27865 30.738281,448.91797 c 10.843099,10.8431 21.686198,21.6862 32.529297,32.5293 C 126.9069,417.80794 190.54622,354.16862 254.18555,290.5293 c 63.63932,63.63932 127.27864,127.27864 190.91797,190.91797 10.84309,-10.8431 21.68619,-21.6862 32.52929,-32.5293 C 413.99349,385.27865 350.35417,321.63932 286.71484,258 350.35417,194.36068 413.99349,130.72135 477.63281,67.082031 466.78971,56.238932 455.94661,45.395833 445.10352,34.552734 381.46419,98.192057 317.82487,161.83138 254.18555,225.4707 190.54622,161.83138 126.9069,98.192057 63.267578,34.552734 52.424479,45.395833 41.58138,56.238932 30.738281,67.082031 Z"
   id="path834"
   inkscape:connector-curvature="0" /></svg>