<?xml version="1.0" encoding="utf-8"?>
<!-- Generator: Adobe Illustrator 19.1.0, SVG Export Plug-In . SVG Version: 6.00 Build 0)  -->
<!DOCTYPE svg PUBLIC "-//W3C//DTD SVG 1.1//EN" "http://www.w3.org/Graphics/SVG/1.1/DTD/svg11.dtd">
<svg version="1.1" id="Ebene_1" xmlns="http://www.w3.org/2000/svg" xmlns:xlink="http://www.w3.org/1999/xlink" x="0px" y="0px"
	 viewBox="-273 365 64 64" style="enable-background:new -273 365 64 64;" xml:space="preserve">
<path d="M-214.6,403.1c-3.4-5.8-1.3-13.3,4.5-16.7l-6.3-10.9c-1.8,1.1-3.9,1.7-6.1,1.7c-6.7,0-12.2-5.5-12.2-12.2h-12.6
	c0,2.1-0.5,4.2-1.6,6.1c-3.4,5.8-10.8,7.8-16.7,4.4l-6.3,10.9c1.8,1,3.4,2.5,4.5,4.5c3.4,5.8,1.3,13.2-4.5,16.6l6.3,10.9
	c1.8-1,3.9-1.6,6.1-1.6c6.7,0,12.1,5.4,12.2,12.2h12.6c0-2.1,0.5-4.2,1.6-6.1c3.4-5.8,10.8-7.8,16.7-4.4l6.3-10.9
	C-212,406.6-213.5,405.1-214.6,403.1L-214.6,403.1z M-241,410c-7.2,0-13-5.8-13-13s5.8-13,13-13s13,5.8,13,13S-233.8,410-241,410z"
	/>
</svg>
